<?xml version="1.0" encoding="UTF-8" standalone="no"?>
<!-- Created with Inkscape (http://www.inkscape.org/) -->

<svg
   xmlns:dc="http://purl.org/dc/elements/1.1/"
   xmlns:cc="http://creativecommons.org/ns#"
   xmlns:rdf="http://www.w3.org/1999/02/22-rdf-syntax-ns#"
   xmlns:svg="http://www.w3.org/2000/svg"
   xmlns="http://www.w3.org/2000/svg"
   xmlns:sodipodi="http://sodipodi.sourceforge.net/DTD/sodipodi-0.dtd"
   xmlns:inkscape="http://www.inkscape.org/namespaces/inkscape"
   width="744.09448819"
   height="1052.3622047"
   id="svg2"
   version="1.1"
   inkscape:version="0.48.4 r9939"
   sodipodi:docname="logo.svg">
  <defs
     id="defs4" />
  <sodipodi:namedview
     id="base"
     pagecolor="#ffffff"
     bordercolor="#666666"
     borderopacity="1.0"
     inkscape:pageopacity="0.0"
     inkscape:pageshadow="2"
     inkscape:zoom="2.8"
     inkscape:cx="394.74598"
     inkscape:cy="313.00721"
     inkscape:document-units="px"
     inkscape:current-layer="layer1"
     showgrid="false"
     inkscape:snap-bbox="true"
     inkscape:snap-nodes="true"
     inkscape:window-width="1366"
     inkscape:window-height="743"
     inkscape:window-x="0"
     inkscape:window-y="2"
     inkscape:window-maximized="1">
    <inkscape:grid
       type="xygrid"
       id="grid2985" />
  </sodipodi:namedview>
  <metadata
     id="metadata7">
    <rdf:RDF>
      <cc:Work
         rdf:about="">
        <dc:format>image/svg+xml</dc:format>
        <dc:type
           rdf:resource="http://purl.org/dc/dcmitype/StillImage" />
        <dc:title></dc:title>
      </cc:Work>
    </rdf:RDF>
  </metadata>
  <g
     inkscape:label="Layer 1"
     inkscape:groupmode="layer"
     id="layer1">
    <rect
       style="fill:#ffff00;fill-opacity:1;stroke:none"
       id="rect3837"
       width="70"
       height="70"
       x="160"
       y="667.36218"
       inkscape:export-filename="/home/jared/clone/familyfound/static/imgs/favicon_hug.png"
       inkscape:export-xdpi="20.571428"
       inkscape:export-ydpi="20.571428" />
    <path
       sodipodi:type="arc"
       style="fill:#0094f6;fill-opacity:1;stroke:none"
       id="path2995"
       sodipodi:cx="102.5"
       sodipodi:cy="514.86218"
       sodipodi:rx="17.5"
       sodipodi:ry="17.5"
       d="m 120,514.86218 a 17.5,17.5 0 1 1 -35,0 17.5,17.5 0 1 1 35,0 z"
       transform="matrix(0.85714286,0,0,0.85714286,12.142857,76.05174)" />
    <path
       d="m 120,514.86218 a 17.5,17.5 0 1 1 -35,0 17.5,17.5 0 1 1 35,0 z"
       sodipodi:ry="17.5"
       sodipodi:rx="17.5"
       sodipodi:cy="514.86218"
       sodipodi:cx="102.5"
       id="path3003"
       style="fill:#0094f6;stroke:none;fill-opacity:1"
       sodipodi:type="arc"
       transform="matrix(1.2857143,0,0,1.2857143,-29.285714,-112.10348)" />
    <path
       transform="translate(10,40)"
       sodipodi:type="arc"
       style="fill:#000cf7;stroke:none;fill-opacity:1"
       id="path3007"
       sodipodi:cx="102.5"
       sodipodi:cy="514.86218"
       sodipodi:rx="17.5"
       sodipodi:ry="17.5"
       d="m 120,514.86218 a 17.5,17.5 0 1 1 -35,0 17.5,17.5 0 1 1 35,0 z" />
    <path
       style="fill:#0094f6;fill-opacity:1;stroke:none"
       d="m 90.12492,543.14746 c 1.607143,7.5 18.70536,11.02679 19.64286,7.14286 0.9375,-3.88393 -7.27679,-6.02679 -8.03572,-12.67857 z"
       id="path3009"
       inkscape:connector-curvature="0"
       sodipodi:nodetypes="czcc" />
    <path
       style="fill:#0094f6;fill-opacity:1;stroke:none"
       d="m 119.05937,535.78768 c 0.90621,0.62319 3.96254,5.09275 3.96254,5.09275 -1.88058,1.85038 -3.07389,2.97556 -2.61574,4.8736 0.41061,1.7011 3.86761,1.97533 7.78696,1.15268 1.58014,-0.33166 0.81765,-3.69422 -0.61586,-5.50132 -1.43352,-1.80709 -4.93142,-4.69007 -8.5179,-5.61771 z"
       id="path3016"
       inkscape:connector-curvature="0"
       sodipodi:nodetypes="cssszc" />
    <path
       d="m 120,514.86218 a 17.5,17.5 0 1 1 -35,0 17.5,17.5 0 1 1 35,0 z"
       sodipodi:ry="17.5"
       sodipodi:rx="17.5"
       sodipodi:cy="514.86218"
       sodipodi:cx="102.5"
       id="path3001"
       style="fill:#000cf7;stroke:none;fill-opacity:1"
       sodipodi:type="arc"
       transform="matrix(0.71428571,0,0,0.71428571,39.285715,162.10348)" />
    <text
       xml:space="preserve"
       style="font-size:30.45408821px;font-style:normal;font-variant:normal;font-weight:bold;font-stretch:normal;line-height:125%;letter-spacing:0px;word-spacing:0px;fill:#000000;fill-opacity:1;stroke:none;font-family:Junction;-inkscape-font-specification:Junction Bold"
       x="150.52202"
       y="551.05835"
       id="text2991"
       sodipodi:linespacing="125%"><tspan
         sodipodi:role="line"
         id="tspan2993"
         x="150.52202"
         y="551.05835">familyfound</tspan></text>
    <text
       xml:space="preserve"
       style="font-size:8px;font-style:normal;font-variant:normal;font-weight:normal;font-stretch:normal;line-height:125%;letter-spacing:0px;word-spacing:0px;fill:#000000;fill-opacity:1;stroke:none;font-family:Khmer OS Content;-inkscape-font-specification:Khmer OS Content"
       x="107.5"
       y="445.21933"
       id="text4396"
       sodipodi:linespacing="125%"><tspan
         sodipodi:role="line"
         x="107.5"
         y="445.21933"
         id="tspan4400">FamilyFound</tspan></text>
    <path
       d="m 120,514.86218 a 17.5,17.5 0 1 1 -35,0 17.5,17.5 0 1 1 35,0 z"
       sodipodi:ry="17.5"
       sodipodi:rx="17.5"
       sodipodi:cy="514.86218"
       sodipodi:cx="102.5"
       id="path4404"
       style="fill:#00fcfc;fill-opacity:1;stroke:none"
       sodipodi:type="arc"
       transform="matrix(0.85714286,0,0,0.85714294,127.14286,1.0516977)" />
    <path
       transform="matrix(1.2857143,0,0,1.2857143,85.714288,-187.10347)"
       sodipodi:type="arc"
       style="fill:#00fcfc;fill-opacity:1;stroke:none"
       id="path4406"
       sodipodi:cx="102.5"
       sodipodi:cy="514.86218"
       sodipodi:rx="17.5"
       sodipodi:ry="17.5"
       d="m 120,514.86218 a 17.5,17.5 0 1 1 -35,0 17.5,17.5 0 1 1 35,0 z" />
    <path
       d="m 120,514.86218 a 17.5,17.5 0 1 1 -35,0 17.5,17.5 0 1 1 35,0 z"
       sodipodi:ry="17.5"
       sodipodi:rx="17.5"
       sodipodi:cy="514.86218"
       sodipodi:cx="102.5"
       id="path4408"
       style="fill:#00fa00;fill-opacity:1;stroke:none"
       sodipodi:type="arc"
       transform="translate(125,-34.999997)" />
    <path
       sodipodi:nodetypes="czcc"
       inkscape:connector-curvature="0"
       id="path4410"
       d="m 205.12492,468.14747 c 1.60714,7.5 18.70536,11.02679 19.64286,7.14286 0.9375,-3.88393 -7.27679,-6.02679 -8.03572,-12.67857 z"
       style="fill:#00fcfc;fill-opacity:1;stroke:none" />
    <path
       sodipodi:nodetypes="cssszc"
       inkscape:connector-curvature="0"
       id="path4412"
       d="m 234.05937,460.78769 c 0.90621,0.62319 3.96254,5.09275 3.96254,5.09275 -1.88058,1.85038 -3.07389,2.97556 -2.61574,4.8736 0.41061,1.7011 3.86761,1.97533 7.78696,1.15268 1.58014,-0.33166 0.81765,-3.69422 -0.61586,-5.50132 -1.43352,-1.80709 -4.93142,-4.69007 -8.5179,-5.61771 z"
       style="fill:#00fcfc;fill-opacity:1;stroke:none" />
    <path
       transform="matrix(0.71428571,0,0,0.71428571,154.28571,87.103483)"
       sodipodi:type="arc"
       style="fill:#00fa00;fill-opacity:1;stroke:none"
       id="path4414"
       sodipodi:cx="102.5"
       sodipodi:cy="514.86218"
       sodipodi:rx="17.5"
       sodipodi:ry="17.5"
       d="m 120,514.86218 a 17.5,17.5 0 1 1 -35,0 17.5,17.5 0 1 1 35,0 z" />
    <path
       transform="matrix(0.85714286,0,0,0.85714286,207.14286,6.0517404)"
       sodipodi:type="arc"
       style="fill:#ff7400;fill-opacity:1;stroke:none"
       id="path4416"
       sodipodi:cx="102.5"
       sodipodi:cy="514.86218"
       sodipodi:rx="17.5"
       sodipodi:ry="17.5"
       d="m 120,514.86218 a 17.5,17.5 0 1 1 -35,0 17.5,17.5 0 1 1 35,0 z" />
    <path
       d="m 120,514.86218 a 17.5,17.5 0 1 1 -35,0 17.5,17.5 0 1 1 35,0 z"
       sodipodi:ry="17.5"
       sodipodi:rx="17.5"
       sodipodi:cy="514.86218"
       sodipodi:cx="102.5"
       id="path4418"
       style="fill:#ff7400;fill-opacity:1;stroke:none"
       sodipodi:type="arc"
       transform="matrix(1.2857143,0,0,1.2857143,165.71428,-182.10348)" />
    <path
       transform="translate(205,-30)"
       sodipodi:type="arc"
       style="fill:#00fa00;fill-opacity:1;stroke:none"
       id="path4420"
       sodipodi:cx="102.5"
       sodipodi:cy="514.86218"
       sodipodi:rx="17.5"
       sodipodi:ry="17.5"
       d="m 120,514.86218 a 17.5,17.5 0 1 1 -35,0 17.5,17.5 0 1 1 35,0 z" />
    <path
       style="fill:#ff7400;fill-opacity:1;stroke:none"
       d="m 285.12492,473.14746 c 1.60714,7.5 18.70536,11.02679 19.64286,7.14286 0.9375,-3.88393 -7.27679,-6.02679 -8.03572,-12.67857 z"
       id="path4422"
       inkscape:connector-curvature="0"
       sodipodi:nodetypes="czcc" />
    <path
       style="fill:#ff7400;fill-opacity:1;stroke:none"
       d="m 314.05937,465.78768 c 0.90621,0.62319 3.96254,5.09275 3.96254,5.09275 -1.88058,1.85038 -3.07389,2.97556 -2.61574,4.8736 0.41061,1.7011 3.86761,1.97533 7.78696,1.15268 1.58014,-0.33166 0.81765,-3.69422 -0.61586,-5.50132 -1.43352,-1.80709 -4.93142,-4.69007 -8.5179,-5.61771 z"
       id="path4424"
       inkscape:connector-curvature="0"
       sodipodi:nodetypes="cssszc" />
    <path
       d="m 120,514.86218 a 17.5,17.5 0 1 1 -35,0 17.5,17.5 0 1 1 35,0 z"
       sodipodi:ry="17.5"
       sodipodi:rx="17.5"
       sodipodi:cy="514.86218"
       sodipodi:cx="102.5"
       id="path4426"
       style="fill:#00fa00;fill-opacity:1;stroke:none"
       sodipodi:type="arc"
       transform="matrix(0.71428571,0,0,0.71428571,234.28571,92.10348)" />
    <path
       transform="matrix(0.85714286,0,0,0.85714286,102.14286,151.05174)"
       sodipodi:type="arc"
       style="fill:#4700a1;fill-opacity:1;stroke:none"
       id="path4428"
       sodipodi:cx="102.5"
       sodipodi:cy="514.86218"
       sodipodi:rx="17.5"
       sodipodi:ry="17.5"
       d="m 120,514.86218 a 17.5,17.5 0 1 1 -35,0 17.5,17.5 0 1 1 35,0 z" />
    <path
       d="m 120,514.86218 a 17.5,17.5 0 1 1 -35,0 17.5,17.5 0 1 1 35,0 z"
       sodipodi:ry="17.5"
       sodipodi:rx="17.5"
       sodipodi:cy="514.86218"
       sodipodi:cx="102.5"
       id="path4430"
       style="fill:#4700a1;fill-opacity:1;stroke:none"
       sodipodi:type="arc"
       transform="matrix(1.2857143,0,0,1.2857143,60.714283,-37.103476)" />
    <path
       transform="translate(100,115)"
       sodipodi:type="arc"
       style="fill:#f700e2;fill-opacity:1;stroke:none"
       id="path4432"
       sodipodi:cx="102.5"
       sodipodi:cy="514.86218"
       sodipodi:rx="17.5"
       sodipodi:ry="17.5"
       d="m 120,514.86218 a 17.5,17.5 0 1 1 -35,0 17.5,17.5 0 1 1 35,0 z" />
    <path
       style="fill:#4700a1;fill-opacity:1;stroke:none"
       d="m 180.12492,618.14746 c 1.60714,7.5 18.70536,11.02679 19.64286,7.14286 0.9375,-3.88393 -7.27679,-6.02679 -8.03572,-12.67857 z"
       id="path4434"
       inkscape:connector-curvature="0"
       sodipodi:nodetypes="czcc" />
    <path
       style="fill:#4700a1;fill-opacity:1;stroke:none"
       d="m 209.05937,610.78768 c 0.90621,0.62319 3.96254,5.09275 3.96254,5.09275 -1.88058,1.85038 -3.07389,2.97556 -2.61574,4.8736 0.41061,1.7011 3.86761,1.97533 7.78696,1.15268 1.58014,-0.33166 0.81765,-3.69422 -0.61586,-5.50132 -1.43352,-1.80709 -4.93142,-4.69007 -8.5179,-5.61771 z"
       id="path4436"
       inkscape:connector-curvature="0"
       sodipodi:nodetypes="cssszc" />
    <path
       d="m 120,514.86218 a 17.5,17.5 0 1 1 -35,0 17.5,17.5 0 1 1 35,0 z"
       sodipodi:ry="17.5"
       sodipodi:rx="17.5"
       sodipodi:cy="514.86218"
       sodipodi:cx="102.5"
       id="path4438"
       style="fill:#f700e2;fill-opacity:1;stroke:none"
       sodipodi:type="arc"
       transform="matrix(0.71428571,0,0,0.71428571,129.28571,237.10348)" />
    <path
       d="m 120,514.86218 a 17.5,17.5 0 1 1 -35,0 17.5,17.5 0 1 1 35,0 z"
       sodipodi:ry="17.5"
       sodipodi:rx="17.5"
       sodipodi:cy="514.86218"
       sodipodi:cx="102.5"
       id="path4440"
       style="fill:#f700e2;fill-opacity:1;stroke:none"
       sodipodi:type="arc"
       transform="matrix(0.85714286,0,0,0.85714286,172.14286,151.05174)" />
    <path
       transform="matrix(1.2857143,0,0,1.2857143,130.71428,-37.103476)"
       sodipodi:type="arc"
       style="fill:#f700e2;fill-opacity:1;stroke:none"
       id="path4442"
       sodipodi:cx="102.5"
       sodipodi:cy="514.86218"
       sodipodi:rx="17.5"
       sodipodi:ry="17.5"
       d="m 120,514.86218 a 17.5,17.5 0 1 1 -35,0 17.5,17.5 0 1 1 35,0 z" />
    <path
       d="m 120,514.86218 a 17.5,17.5 0 1 1 -35,0 17.5,17.5 0 1 1 35,0 z"
       sodipodi:ry="17.5"
       sodipodi:rx="17.5"
       sodipodi:cy="514.86218"
       sodipodi:cx="102.5"
       id="path4444"
       style="fill:#4700a1;fill-opacity:1;stroke:none"
       sodipodi:type="arc"
       transform="translate(170,115)" />
    <path
       sodipodi:nodetypes="czcc"
       inkscape:connector-curvature="0"
       id="path4446"
       d="m 250.12492,618.14746 c 1.60714,7.5 18.70536,11.02679 19.64286,7.14286 0.9375,-3.88393 -7.27679,-6.02679 -8.03572,-12.67857 z"
       style="fill:#f700e2;fill-opacity:1;stroke:none" />
    <path
       sodipodi:nodetypes="cssszc"
       inkscape:connector-curvature="0"
       id="path4448"
       d="m 279.05937,610.78768 c 0.90621,0.62319 3.96254,5.09275 3.96254,5.09275 -1.88058,1.85038 -3.07389,2.97556 -2.61574,4.8736 0.41061,1.7011 3.86761,1.97533 7.78696,1.15268 1.58014,-0.33166 0.81765,-3.69422 -0.61586,-5.50132 -1.43352,-1.80709 -4.93142,-4.69007 -8.5179,-5.61771 z"
       style="fill:#f700e2;fill-opacity:1;stroke:none" />
    <path
       transform="matrix(0.71428571,0,0,0.71428571,199.28571,237.10348)"
       sodipodi:type="arc"
       style="fill:#4700a1;fill-opacity:1;stroke:none"
       id="path4450"
       sodipodi:cx="102.5"
       sodipodi:cy="514.86218"
       sodipodi:rx="17.5"
       sodipodi:ry="17.5"
       d="m 120,514.86218 a 17.5,17.5 0 1 1 -35,0 17.5,17.5 0 1 1 35,0 z" />
    <path
       transform="matrix(0.85714286,0,0,0.85714286,232.14286,156.05174)"
       sodipodi:type="arc"
       style="fill:#f700e2;fill-opacity:1;stroke:none"
       id="path4452"
       sodipodi:cx="102.5"
       sodipodi:cy="514.86218"
       sodipodi:rx="17.5"
       sodipodi:ry="17.5"
       d="m 120,514.86218 a 17.5,17.5 0 1 1 -35,0 17.5,17.5 0 1 1 35,0 z" />
    <path
       d="m 120,514.86218 a 17.5,17.5 0 1 1 -35,0 17.5,17.5 0 1 1 35,0 z"
       sodipodi:ry="17.5"
       sodipodi:rx="17.5"
       sodipodi:cy="514.86218"
       sodipodi:cx="102.5"
       id="path4454"
       style="fill:#f700e2;fill-opacity:1;stroke:none"
       sodipodi:type="arc"
       transform="matrix(1.2857143,0,0,1.2857143,190.71428,-32.103476)" />
    <path
       transform="translate(230,120)"
       sodipodi:type="arc"
       style="fill:#4c00aa;fill-opacity:1;stroke:none"
       id="path4456"
       sodipodi:cx="102.5"
       sodipodi:cy="514.86218"
       sodipodi:rx="17.5"
       sodipodi:ry="17.5"
       d="m 120,514.86218 a 17.5,17.5 0 1 1 -35,0 17.5,17.5 0 1 1 35,0 z" />
    <path
       style="fill:#f700e2;fill-opacity:1;stroke:none"
       d="m 310.12492,623.14746 c 1.60714,7.5 18.70536,11.02679 19.64286,7.14286 0.9375,-3.88393 -7.27679,-6.02679 -8.03572,-12.67857 z"
       id="path4458"
       inkscape:connector-curvature="0"
       sodipodi:nodetypes="czcc" />
    <path
       style="fill:#f700e2;fill-opacity:1;stroke:none"
       d="m 339.05937,615.78768 c 0.90621,0.62319 3.96254,5.09275 3.96254,5.09275 -1.88058,1.85038 -3.07389,2.97556 -2.61574,4.8736 0.41061,1.7011 3.86761,1.97533 7.78696,1.15268 1.58014,-0.33166 0.81765,-3.69422 -0.61586,-5.50132 -1.43352,-1.80709 -4.93142,-4.69007 -8.5179,-5.61771 z"
       id="path4460"
       inkscape:connector-curvature="0"
       sodipodi:nodetypes="cssszc" />
    <path
       d="m 120,514.86218 a 17.5,17.5 0 1 1 -35,0 17.5,17.5 0 1 1 35,0 z"
       sodipodi:ry="17.5"
       sodipodi:rx="17.5"
       sodipodi:cy="514.86218"
       sodipodi:cx="102.5"
       id="path4462"
       style="fill:#4c00aa;fill-opacity:1;stroke:none"
       sodipodi:type="arc"
       transform="matrix(0.71428571,0,0,0.71428571,259.28571,242.10348)" />
    <g
       id="g4028"
       inkscape:export-filename="/home/jared/clone/familyfound/static/imgs/logo.png"
       inkscape:export-xdpi="90"
       inkscape:export-ydpi="90">
      <path
         transform="matrix(0.85714287,0,0,0.85714294,12.142856,156.0517)"
         sodipodi:type="arc"
         style="fill:#000cf7;fill-opacity:1;stroke:none"
         id="path4464"
         sodipodi:cx="102.5"
         sodipodi:cy="514.86218"
         sodipodi:rx="17.5"
         sodipodi:ry="17.5"
         d="m 120,514.86218 a 17.5,17.5 0 1 1 -35,0 17.5,17.5 0 1 1 35,0 z" />
      <path
         d="m 120,514.86218 a 17.5,17.5 0 1 1 -35,0 17.5,17.5 0 1 1 35,0 z"
         sodipodi:ry="17.5"
         sodipodi:rx="17.5"
         sodipodi:cy="514.86218"
         sodipodi:cx="102.5"
         id="path4466"
         style="fill:#000cf7;fill-opacity:1;stroke:none"
         sodipodi:type="arc"
         transform="matrix(1.2857143,0,0,1.2857143,-29.285714,-32.103477)" />
      <path
         transform="translate(9.9999997,120)"
         sodipodi:type="arc"
         style="fill:#0094f6;fill-opacity:1;stroke:none"
         id="path4468"
         sodipodi:cx="102.5"
         sodipodi:cy="514.86218"
         sodipodi:rx="17.5"
         sodipodi:ry="17.5"
         d="m 120,514.86218 a 17.5,17.5 0 1 1 -35,0 17.5,17.5 0 1 1 35,0 z" />
      <path
         style="fill:#000cf7;fill-opacity:1;stroke:none"
         d="m 90.12492,623.14746 c 1.607143,7.5 18.70536,11.02679 19.64286,7.14286 0.9375,-3.88393 -7.27679,-6.02679 -8.03572,-12.67857 z"
         id="path4470"
         inkscape:connector-curvature="0"
         sodipodi:nodetypes="czcc" />
      <path
         style="fill:#000cf7;fill-opacity:1;stroke:none"
         d="m 119.05937,615.78768 c 0.90621,0.62319 3.96254,5.09275 3.96254,5.09275 -1.88058,1.85038 -3.07389,2.97556 -2.61574,4.8736 0.41061,1.7011 3.86761,1.97533 7.78696,1.15268 1.58014,-0.33166 0.81765,-3.69422 -0.61586,-5.50132 -1.43352,-1.80709 -4.93142,-4.69007 -8.5179,-5.61771 z"
         id="path4472"
         inkscape:connector-curvature="0"
         sodipodi:nodetypes="cssszc" />
      <path
         d="m 120,514.86218 a 17.5,17.5 0 1 1 -35,0 17.5,17.5 0 1 1 35,0 z"
         sodipodi:ry="17.5"
         sodipodi:rx="17.5"
         sodipodi:cy="514.86218"
         sodipodi:cx="102.5"
         id="path4474"
         style="fill:#0094f6;fill-opacity:1;stroke:none"
         sodipodi:type="arc"
         transform="matrix(0.71428571,0,0,0.71428571,39.285715,242.10348)" />
    </g>
    <path
       d="m 120,514.86218 a 17.5,17.5 0 1 1 -35,0 17.5,17.5 0 1 1 35,0 z"
       sodipodi:ry="17.5"
       sodipodi:rx="17.5"
       sodipodi:cy="514.86218"
       sodipodi:cx="102.5"
       id="path4495"
       style="fill:#ffa700;fill-opacity:1;stroke:none"
       sodipodi:type="arc"
       transform="matrix(0.85714286,0,0,0.85714286,294.52106,35.346164)" />
    <path
       transform="matrix(1.2857143,0,0,1.2857143,253.09248,-152.80906)"
       sodipodi:type="arc"
       style="fill:#ffa700;fill-opacity:1;stroke:none"
       id="path4497"
       sodipodi:cx="102.5"
       sodipodi:cy="514.86218"
       sodipodi:rx="17.5"
       sodipodi:ry="17.5"
       d="m 120,514.86218 a 17.5,17.5 0 1 1 -35,0 17.5,17.5 0 1 1 35,0 z" />
    <path
       d="m 120,514.86218 a 17.5,17.5 0 1 1 -35,0 17.5,17.5 0 1 1 35,0 z"
       sodipodi:ry="17.5"
       sodipodi:rx="17.5"
       sodipodi:cy="514.86218"
       sodipodi:cx="102.5"
       id="path4499"
       style="fill:#ff6c00;fill-opacity:1;stroke:none"
       sodipodi:type="arc"
       transform="translate(292.3782,-0.70557617)" />
    <path
       sodipodi:nodetypes="czcc"
       inkscape:connector-curvature="0"
       id="path4501"
       d="m 372.50312,502.44188 c 1.60714,7.5 18.70536,11.02679 19.64286,7.14286 0.9375,-3.88393 -7.27679,-6.02679 -8.03572,-12.67857 z"
       style="fill:#ffa700;fill-opacity:1;stroke:none" />
    <path
       sodipodi:nodetypes="cssszc"
       inkscape:connector-curvature="0"
       id="path4503"
       d="m 401.43757,495.0821 c 0.90621,0.62319 3.96254,5.09275 3.96254,5.09275 -1.88058,1.85038 -3.07389,2.97556 -2.61574,4.8736 0.41061,1.7011 3.86761,1.97533 7.78696,1.15268 1.58014,-0.33166 0.81765,-3.69422 -0.61586,-5.50132 -1.43352,-1.80709 -4.93142,-4.69007 -8.5179,-5.61771 z"
       style="fill:#ffa700;fill-opacity:1;stroke:none" />
    <path
       transform="matrix(0.71428571,0,0,0.71428571,321.66391,121.3979)"
       sodipodi:type="arc"
       style="fill:#ff6c00;fill-opacity:1;stroke:none"
       id="path4505"
       sodipodi:cx="102.5"
       sodipodi:cy="514.86218"
       sodipodi:rx="17.5"
       sodipodi:ry="17.5"
       d="m 120,514.86218 a 17.5,17.5 0 1 1 -35,0 17.5,17.5 0 1 1 35,0 z" />
    <path
       transform="matrix(0.85714286,0,0,0.85714286,370.78758,78.277647)"
       sodipodi:type="arc"
       style="fill:#ffd200;fill-opacity:1;stroke:none"
       id="path4507"
       sodipodi:cx="102.5"
       sodipodi:cy="514.86218"
       sodipodi:rx="17.5"
       sodipodi:ry="17.5"
       d="m 120,514.86218 a 17.5,17.5 0 1 1 -35,0 17.5,17.5 0 1 1 35,0 z" />
    <path
       d="m 120,514.86218 a 17.5,17.5 0 1 1 -35,0 17.5,17.5 0 1 1 35,0 z"
       sodipodi:ry="17.5"
       sodipodi:rx="17.5"
       sodipodi:cy="514.86218"
       sodipodi:cx="102.5"
       id="path4509"
       style="fill:#ffd200;fill-opacity:1;stroke:none"
       sodipodi:type="arc"
       transform="matrix(1.2857143,0,0,1.2857143,329.359,-109.87758)" />
    <path
       transform="translate(368.64472,42.225907)"
       sodipodi:type="arc"
       style="fill:#ffa700;fill-opacity:1;stroke:none"
       id="path4511"
       sodipodi:cx="102.5"
       sodipodi:cy="514.86218"
       sodipodi:rx="17.5"
       sodipodi:ry="17.5"
       d="m 120,514.86218 a 17.5,17.5 0 1 1 -35,0 17.5,17.5 0 1 1 35,0 z" />
    <path
       style="fill:#ffd200;fill-opacity:1;stroke:none"
       d="m 448.76964,545.37336 c 1.60714,7.5 18.70536,11.02679 19.64286,7.14286 0.9375,-3.88393 -7.27679,-6.02679 -8.03572,-12.67857 z"
       id="path4513"
       inkscape:connector-curvature="0"
       sodipodi:nodetypes="czcc" />
    <path
       style="fill:#ffd200;fill-opacity:1;stroke:none"
       d="m 477.70409,538.01358 c 0.90621,0.62319 3.96254,5.09275 3.96254,5.09275 -1.88058,1.85038 -3.07389,2.97556 -2.61574,4.8736 0.41061,1.7011 3.86761,1.97533 7.78696,1.15268 1.58014,-0.33166 0.81765,-3.69422 -0.61586,-5.50132 -1.43352,-1.80709 -4.93142,-4.69007 -8.5179,-5.61771 z"
       id="path4515"
       inkscape:connector-curvature="0"
       sodipodi:nodetypes="cssszc" />
    <path
       d="m 120,514.86218 a 17.5,17.5 0 1 1 -35,0 17.5,17.5 0 1 1 35,0 z"
       sodipodi:ry="17.5"
       sodipodi:rx="17.5"
       sodipodi:cy="514.86218"
       sodipodi:cx="102.5"
       id="path4517"
       style="fill:#ffa700;fill-opacity:1;stroke:none"
       sodipodi:type="arc"
       transform="matrix(0.71428571,0,0,0.71428571,397.93043,164.32938)" />
    <path
       d="m 120,514.86218 a 17.5,17.5 0 1 1 -35,0 17.5,17.5 0 1 1 35,0 z"
       sodipodi:ry="17.5"
       sodipodi:rx="17.5"
       sodipodi:cy="514.86218"
       sodipodi:cx="102.5"
       id="path4519"
       style="fill:#b2fe00;fill-opacity:1;stroke:none"
       sodipodi:type="arc"
       transform="matrix(0.85714286,0,0,0.85714286,338.96777,167.67615)" />
    <path
       transform="matrix(1.2857143,0,0,1.2857143,297.53919,-20.47908)"
       sodipodi:type="arc"
       style="fill:#b2fe00;fill-opacity:1;stroke:none"
       id="path4521"
       sodipodi:cx="102.5"
       sodipodi:cy="514.86218"
       sodipodi:rx="17.5"
       sodipodi:ry="17.5"
       d="m 120,514.86218 a 17.5,17.5 0 1 1 -35,0 17.5,17.5 0 1 1 35,0 z" />
    <path
       d="m 120,514.86218 a 17.5,17.5 0 1 1 -35,0 17.5,17.5 0 1 1 35,0 z"
       sodipodi:ry="17.5"
       sodipodi:rx="17.5"
       sodipodi:cy="514.86218"
       sodipodi:cx="102.5"
       id="path4523"
       style="fill:#18fa00;fill-opacity:1;stroke:none"
       sodipodi:type="arc"
       transform="translate(336.82491,131.62441)" />
    <path
       sodipodi:nodetypes="czcc"
       inkscape:connector-curvature="0"
       id="path4525"
       d="m 416.94983,634.77186 c 1.60714,7.5 18.70536,11.02679 19.64286,7.14286 0.9375,-3.88393 -7.27679,-6.02679 -8.03572,-12.67857 z"
       style="fill:#b2fe00;fill-opacity:1;stroke:none" />
    <path
       sodipodi:nodetypes="cssszc"
       inkscape:connector-curvature="0"
       id="path4527"
       d="m 445.88428,627.41208 c 0.90621,0.62319 3.96254,5.09275 3.96254,5.09275 -1.88058,1.85038 -3.07389,2.97556 -2.61574,4.8736 0.41061,1.7011 3.86761,1.97533 7.78696,1.15268 1.58014,-0.33166 0.81765,-3.69422 -0.61586,-5.50132 -1.43352,-1.80709 -4.93142,-4.69007 -8.5179,-5.61771 z"
       style="fill:#b2fe00;fill-opacity:1;stroke:none" />
    <path
       transform="matrix(0.71428571,0,0,0.71428571,366.11062,253.72788)"
       sodipodi:type="arc"
       style="fill:#18fa00;fill-opacity:1;stroke:none"
       id="path4529"
       sodipodi:cx="102.5"
       sodipodi:cy="514.86218"
       sodipodi:rx="17.5"
       sodipodi:ry="17.5"
       d="m 120,514.86218 a 17.5,17.5 0 1 1 -35,0 17.5,17.5 0 1 1 35,0 z" />
    <path
       transform="matrix(0.85714287,0,0,0.85714294,102.14286,241.0517)"
       sodipodi:type="arc"
       style="fill:#000cf7;fill-opacity:1;stroke:none"
       id="path3823"
       sodipodi:cx="102.5"
       sodipodi:cy="514.86218"
       sodipodi:rx="17.5"
       sodipodi:ry="17.5"
       d="m 120,514.86218 a 17.5,17.5 0 1 1 -35,0 17.5,17.5 0 1 1 35,0 z" />
    <path
       d="m 120,514.86218 a 17.5,17.5 0 1 1 -35,0 17.5,17.5 0 1 1 35,0 z"
       sodipodi:ry="17.5"
       sodipodi:rx="17.5"
       sodipodi:cy="514.86218"
       sodipodi:cx="102.5"
       id="path3825"
       style="fill:#000cf7;fill-opacity:1;stroke:none"
       sodipodi:type="arc"
       transform="matrix(1.2857143,0,0,1.2857143,60.714286,52.896527)" />
    <path
       transform="translate(99.999999,205)"
       sodipodi:type="arc"
       style="fill:#84ccff;fill-opacity:1;stroke:none"
       id="path3827"
       sodipodi:cx="102.5"
       sodipodi:cy="514.86218"
       sodipodi:rx="17.5"
       sodipodi:ry="17.5"
       d="m 120,514.86218 a 17.5,17.5 0 1 1 -35,0 17.5,17.5 0 1 1 35,0 z" />
    <path
       style="fill:#000cf7;fill-opacity:1;stroke:none"
       d="m 180.12491,708.14746 c 1.60715,7.5 18.70536,11.02679 19.64286,7.14286 0.9375,-3.88393 -7.27679,-6.02679 -8.03572,-12.67857 z"
       id="path3829"
       inkscape:connector-curvature="0"
       sodipodi:nodetypes="czcc" />
    <path
       style="fill:#000cf7;fill-opacity:1;stroke:none"
       d="m 209.05936,700.78768 c 0.90621,0.62319 3.96254,5.09275 3.96254,5.09275 -1.88058,1.85038 -3.07389,2.97556 -2.61574,4.8736 0.41061,1.7011 3.86761,1.97533 7.78696,1.15268 1.58014,-0.33166 0.81765,-3.69422 -0.61586,-5.50132 -1.43352,-1.80709 -4.93142,-4.69007 -8.5179,-5.61771 z"
       id="path3831"
       inkscape:connector-curvature="0"
       sodipodi:nodetypes="cssszc" />
    <path
       d="m 120,514.86218 a 17.5,17.5 0 1 1 -35,0 17.5,17.5 0 1 1 35,0 z"
       sodipodi:ry="17.5"
       sodipodi:rx="17.5"
       sodipodi:cy="514.86218"
       sodipodi:cx="102.5"
       id="path3833"
       style="fill:#84ccff;fill-opacity:1;stroke:none"
       sodipodi:type="arc"
       transform="matrix(0.71428571,0,0,0.71428571,129.28571,327.10348)" />
    <g
       id="g4020"
       transform="translate(-93.944182,10.101525)"
       inkscape:export-filename="/home/jared/clone/familyfound/static/imgs/logo_light.png"
       inkscape:export-xdpi="90"
       inkscape:export-ydpi="90">
      <path
         transform="matrix(0.85714287,0,0,0.85714294,102.14286,241.0517)"
         sodipodi:type="arc"
         style="fill:#000cf7;fill-opacity:1;stroke:none"
         id="path4008"
         sodipodi:cx="102.5"
         sodipodi:cy="514.86218"
         sodipodi:rx="17.5"
         sodipodi:ry="17.5"
         d="m 120,514.86218 c 0,9.66499 -7.83502,17.5 -17.5,17.5 -9.664983,0 -17.5,-7.83501 -17.5,-17.5 0,-9.66498 7.835017,-17.5 17.5,-17.5 9.66498,0 17.5,7.83502 17.5,17.5 z" />
      <path
         d="m 120,514.86218 c 0,9.66499 -7.83502,17.5 -17.5,17.5 -9.664983,0 -17.5,-7.83501 -17.5,-17.5 0,-9.66498 7.835017,-17.5 17.5,-17.5 9.66498,0 17.5,7.83502 17.5,17.5 z"
         sodipodi:ry="17.5"
         sodipodi:rx="17.5"
         sodipodi:cy="514.86218"
         sodipodi:cx="102.5"
         id="path4010"
         style="fill:#000cf7;fill-opacity:1;stroke:none"
         sodipodi:type="arc"
         transform="matrix(1.2857143,0,0,1.2857143,60.714286,52.896527)" />
      <path
         transform="translate(99.999999,205)"
         sodipodi:type="arc"
         style="fill:#84ccff;fill-opacity:1;stroke:none"
         id="path4012"
         sodipodi:cx="102.5"
         sodipodi:cy="514.86218"
         sodipodi:rx="17.5"
         sodipodi:ry="17.5"
         d="m 120,514.86218 c 0,9.66499 -7.83502,17.5 -17.5,17.5 -9.664983,0 -17.5,-7.83501 -17.5,-17.5 0,-9.66498 7.835017,-17.5 17.5,-17.5 9.66498,0 17.5,7.83502 17.5,17.5 z" />
      <path
         style="fill:#000cf7;fill-opacity:1;stroke:none"
         d="m 180.12491,708.14746 c 1.60715,7.5 18.70536,11.02679 19.64286,7.14286 0.9375,-3.88393 -7.27679,-6.02679 -8.03572,-12.67857 z"
         id="path4014"
         inkscape:connector-curvature="0"
         sodipodi:nodetypes="czcc" />
      <path
         style="fill:#000cf7;fill-opacity:1;stroke:none"
         d="m 209.05936,700.78768 c 0.90621,0.62319 3.96254,5.09275 3.96254,5.09275 -1.88058,1.85038 -3.07389,2.97556 -2.61574,4.8736 0.41061,1.7011 3.86761,1.97533 7.78696,1.15268 1.58014,-0.33166 0.81765,-3.69422 -0.61586,-5.50132 -1.43352,-1.80709 -4.93142,-4.69007 -8.5179,-5.61771 z"
         id="path4016"
         inkscape:connector-curvature="0"
         sodipodi:nodetypes="cssszc" />
      <path
         d="m 120,514.86218 c 0,9.66499 -7.83502,17.5 -17.5,17.5 -9.664983,0 -17.5,-7.83501 -17.5,-17.5 0,-9.66498 7.835017,-17.5 17.5,-17.5 9.66498,0 17.5,7.83502 17.5,17.5 z"
         sodipodi:ry="17.5"
         sodipodi:rx="17.5"
         sodipodi:cy="514.86218"
         sodipodi:cx="102.5"
         id="path4018"
         style="fill:#84ccff;fill-opacity:1;stroke:none"
         sodipodi:type="arc"
         transform="matrix(0.71428571,0,0,0.71428571,129.28571,327.10348)" />
    </g>
    <path
       inkscape:connector-curvature="0"
       id="path4041"
       style="font-size:30.45408821px;font-style:normal;font-variant:normal;font-weight:bold;font-stretch:normal;line-height:125%;letter-spacing:0px;word-spacing:0px;fill:#000000;fill-opacity:1;stroke:none;font-family:Junction;-inkscape-font-specification:Junction Bold"
       d="m 359.73222,706.64648 c 0.0305,-1.8577 0.15227,-3.3195 2.19269,-3.3195 1.58362,0 3.74586,1.37044 3.74586,1.37044 l 1.55316,-1.55316 c 0,0 -2.89315,-1.94906 -5.29902,-1.94906 -3.50221,0 -4.72038,2.31451 -4.72038,5.45128 l 0,2.92359 -2.16224,0 0,2.13179 2.16224,0 0,14.61796 2.52769,0 0,-14.61796 4.93356,0 0,-2.13179 -4.93356,0 0,-2.92359" />
    <path
       inkscape:connector-curvature="0"
       id="path4043"
       style="font-size:30.45408821px;font-style:normal;font-variant:normal;font-weight:bold;font-stretch:normal;line-height:125%;letter-spacing:0px;word-spacing:0px;fill:#000000;fill-opacity:1;stroke:none;font-family:Junction;-inkscape-font-specification:Junction Bold"
       d="m 369.22107,713.92501 c 0,0.0304 4.08085,-2.34497 6.66945,-2.34497 1.73588,0 1.88815,1.79679 1.88815,2.43633 l 0,1.91861 c -0.7309,0.18272 -2.00997,0.3959 -4.23312,0.70044 -5.14673,0.76135 -6.02991,3.3195 -6.02991,5.48174 0,4.23311 4.0504,4.56811 4.72039,4.56811 2.2536,0 4.26357,-1.06589 5.72537,-2.61905 0.27408,1.06589 0.88317,2.04042 2.34496,2.61905 l 1.64452,-1.5227 c -1.67497,-0.79181 -1.64452,-2.00997 -1.64452,-2.13179 l 0,-9.01441 c 0,-1.58361 -0.54818,-4.81175 -4.05039,-4.81175 -3.3804,0 -6.94354,2.04043 -8.03988,2.64951 -0.0305,0.0609 1.00498,2.04042 1.00498,2.07088 m 2.9236,10.62847 c -0.45682,-0.0304 -2.13179,-0.33499 -2.13179,-2.43632 0,-1.40089 0.48727,-2.83223 3.80676,-3.34995 1.97951,-0.30454 3.04541,-0.45681 3.95903,-0.63954 l 0,3.59358 c -1.21816,1.52271 -3.50222,2.9845 -5.634,2.83223" />
    <path
       inkscape:connector-curvature="0"
       id="path4045"
       style="font-size:30.45408821px;font-style:normal;font-variant:normal;font-weight:bold;font-stretch:normal;line-height:125%;letter-spacing:0px;word-spacing:0px;fill:#000000;fill-opacity:1;stroke:none;font-family:Junction;-inkscape-font-specification:Junction Bold"
       d="m 388.11783,726.31982 0,-10.62848 c 1.21817,-1.46179 3.44132,-3.92857 6.33445,-3.92857 0.94408,0 1.30953,1.00498 1.30953,2.6495 l 0,11.90755 2.55814,0 0,-10.62848 c 1.21817,-1.46179 3.22814,-3.92857 6.33445,-3.92857 0.94408,0 1.30953,1.00498 1.30953,2.6495 l 0,11.90755 2.55814,0 0,-11.90755 c 0,-3.22813 -1.09635,-5.20765 -3.86767,-5.20765 -2.67995,0 -4.8422,1.70543 -6.42581,3.47177 -0.30454,-2.37542 -1.4618,-3.47177 -3.77631,-3.47177 -2.6495,0 -4.75083,1.64453 -6.33445,3.38041 l 0,-3.01496 -2.55814,0 0,16.74975 2.55814,0" />
    <path
       inkscape:connector-curvature="0"
       id="path4047"
       style="font-size:30.45408821px;font-style:normal;font-variant:normal;font-weight:bold;font-stretch:normal;line-height:125%;letter-spacing:0px;word-spacing:0px;fill:#000000;fill-opacity:1;stroke:none;font-family:Junction;-inkscape-font-specification:Junction Bold"
       d="m 413.46325,709.57007 0,16.74975 2.52769,0 0,-16.74975 -2.52769,0 m -0.30454,-5.14674 c 0,0.91362 0.66999,1.58361 1.58361,1.58361 0.88317,0 1.55316,-0.66999 1.55316,-1.58361 0,-0.88317 -0.66999,-1.55316 -1.55316,-1.55316 -0.91362,0 -1.58361,0.66999 -1.58361,1.55316" />
    <path
       inkscape:connector-curvature="0"
       id="path4049"
       style="font-size:30.45408821px;font-style:normal;font-variant:normal;font-weight:bold;font-stretch:normal;line-height:125%;letter-spacing:0px;word-spacing:0px;fill:#000000;fill-opacity:1;stroke:none;font-family:Junction;-inkscape-font-specification:Junction Bold"
       d="m 421.42652,701.34747 0,20.52605 c 0,1.1268 0,2.71042 1.06589,3.77631 0.94408,0.94408 2.77132,1.03544 3.7154,1.03544 l 0.0914,-2.16224 c -0.85271,0 -1.49225,-0.18273 -1.94906,-0.63954 -0.3959,-0.3959 -0.3959,-1.30952 -0.3959,-2.00997 l 0,-20.52605 -2.52769,0" />
    <path
       inkscape:connector-curvature="0"
       id="path4051"
       style="font-size:30.45408821px;font-style:normal;font-variant:normal;font-weight:bold;font-stretch:normal;line-height:125%;letter-spacing:0px;word-spacing:0px;fill:#000000;fill-opacity:1;stroke:none;font-family:Junction;-inkscape-font-specification:Junction Bold"
       d="m 427.80189,709.57007 5.84718,15.22705 -0.82226,2.04042 c -1.15725,2.80177 -1.70543,3.62404 -2.43632,4.32448 -0.63954,0.63954 -1.37044,1.18771 -3.22814,1.30953 l 0.63954,2.22315 c 1.06589,-0.0609 2.67996,-0.27409 4.32448,-1.8577 1.55316,-1.49225 2.34497,-3.44132 3.10632,-5.32947 6.63898,-16.29292 7.0958,-17.1152 7.94851,-17.93746 l -2.89313,0 c -0.57863,0.48727 -3.13678,6.60854 -5.23811,11.75528 l -4.53766,-11.75528 -2.71041,0" />
    <path
       inkscape:connector-curvature="0"
       id="path4053"
       style="font-size:30.45408821px;font-style:normal;font-variant:normal;font-weight:bold;font-stretch:normal;line-height:125%;letter-spacing:0px;word-spacing:0px;fill:#0029bb;fill-opacity:1;stroke:none;font-family:Junction;-inkscape-font-specification:Junction Bold"
       d="m 448.62249,706.64648 c 0.0305,-1.8577 0.15228,-3.3195 2.1927,-3.3195 1.58361,0 3.74585,1.37044 3.74585,1.37044 l 1.55316,-1.55316 c 0,0 -2.89314,-1.94906 -5.29901,-1.94906 -3.50222,0 -4.72039,2.31451 -4.72039,5.45128 l 0,2.92359 -2.16224,0 0,2.13179 2.16224,0 0,14.61796 2.52769,0 0,-14.61796 4.93357,0 0,-2.13179 -4.93357,0 0,-2.92359" />
    <path
       inkscape:connector-curvature="0"
       id="path4055"
       style="font-size:30.45408821px;font-style:normal;font-variant:normal;font-weight:bold;font-stretch:normal;line-height:125%;letter-spacing:0px;word-spacing:0px;fill:#0029bb;fill-opacity:1;stroke:none;font-family:Junction;-inkscape-font-specification:Junction Bold"
       d="m 456.25368,717.94495 c 0,6.60853 3.62404,8.74032 7.27852,8.74032 3.65449,0 7.27853,-2.28406 7.27853,-8.74032 0,-6.3649 -3.62404,-8.74033 -7.27853,-8.74033 -3.65448,0 -7.27852,2.34497 -7.27852,8.74033 m 11.99891,0 c 0,4.9031 -2.40588,6.66944 -4.72039,6.66944 -2.3145,0 -4.72038,-1.8577 -4.72038,-6.66944 0,-4.87265 2.40588,-6.63899 4.72038,-6.63899 2.31451,0 4.72039,1.91861 4.72039,6.63899" />
    <path
       inkscape:connector-curvature="0"
       id="path4057"
       style="font-size:30.45408821px;font-style:normal;font-variant:normal;font-weight:bold;font-stretch:normal;line-height:125%;letter-spacing:0px;word-spacing:0px;fill:#0029bb;fill-opacity:1;stroke:none;font-family:Junction;-inkscape-font-specification:Junction Bold"
       d="m 478.42235,724.21849 c -0.94408,0 -1.30953,-1.09635 -1.30953,-2.74087 l 0,-11.90755 -2.55814,0 0,11.90755 c 0,3.22813 1.09635,5.20765 3.86767,5.20765 2.71041,0 5.42083,-1.52271 7.30898,-3.3195 l 0,2.95405 2.55814,0 0,-16.74975 -2.55814,0 0,10.59803 c -1.61406,1.67497 -4.29403,4.05039 -7.30898,4.05039" />
    <path
       inkscape:connector-curvature="0"
       id="path4059"
       style="font-size:30.45408821px;font-style:normal;font-variant:normal;font-weight:bold;font-stretch:normal;line-height:125%;letter-spacing:0px;word-spacing:0px;fill:#0029bb;fill-opacity:1;stroke:none;font-family:Junction;-inkscape-font-specification:Junction Bold"
       d="m 495.94915,726.31982 0,-10.56757 c 1.61407,-1.64452 4.26358,-3.98948 7.30898,-3.98948 0.94408,0 1.30953,1.00498 1.30953,2.6495 l 0,11.90755 2.55814,0 0,-11.90755 c 0,-3.22813 -1.09635,-5.20765 -3.86767,-5.20765 -2.74086,0 -5.45128,1.7968 -7.30898,3.59359 l 0,-3.22814 -2.55814,0 0,16.74975 2.55814,0" />
    <path
       inkscape:connector-curvature="0"
       id="path4061"
       style="font-size:30.45408821px;font-style:normal;font-variant:normal;font-weight:bold;font-stretch:normal;line-height:125%;letter-spacing:0px;word-spacing:0px;fill:#0029bb;fill-opacity:1;stroke:none;font-family:Junction;-inkscape-font-specification:Junction Bold"
       d="m 516.94772,726.56345 c 2.61905,0.0305 4.75084,-1.24862 6.36491,-3.07586 0.12181,0.94408 0.45681,2.49724 2.55814,3.25859 l 1.61407,-1.64452 c -1.94906,-0.63954 -1.76634,-2.80178 -1.76634,-2.80178 l 0,-20.95241 -2.55815,0 0,10.17166 c -1.73588,-1.49224 -3.56313,-2.31451 -5.20764,-2.31451 -4.35493,0 -7.09581,3.3195 -7.09581,9.01441 0,4.41584 2.37543,8.31397 6.09082,8.34442 m 0,-2.46678 c -2.13178,-0.15227 -3.47177,-2.80178 -3.47177,-5.87764 0,-4.11129 1.76634,-6.51717 4.47676,-6.51717 1.58361,0 3.53267,1.1268 5.20764,2.77132 l 0,5.5731 c -0.97453,1.55316 -2.9845,4.29402 -6.21263,4.05039" />
    <g
       inkscape:export-ydpi="90"
       inkscape:export-xdpi="90"
       inkscape:export-filename="/home/jared/clone/familyfound/static/imgs/logo_light.png"
       transform="matrix(0.57429295,0,0,0.57429295,220.35755,309.85968)"
       id="g4074">
      <path
         d="m 120,514.86218 c 0,9.66499 -7.83502,17.5 -17.5,17.5 -9.664983,0 -17.5,-7.83501 -17.5,-17.5 0,-9.66498 7.835017,-17.5 17.5,-17.5 9.66498,0 17.5,7.83502 17.5,17.5 z"
         sodipodi:ry="17.5"
         sodipodi:rx="17.5"
         sodipodi:cy="514.86218"
         sodipodi:cx="102.5"
         id="path4076"
         style="fill:#000cf7;fill-opacity:1;stroke:none"
         sodipodi:type="arc"
         transform="matrix(0.85714287,0,0,0.85714294,102.14286,241.0517)" />
      <path
         transform="matrix(1.2857143,0,0,1.2857143,60.714286,52.896527)"
         sodipodi:type="arc"
         style="fill:#000cf7;fill-opacity:1;stroke:none"
         id="path4078"
         sodipodi:cx="102.5"
         sodipodi:cy="514.86218"
         sodipodi:rx="17.5"
         sodipodi:ry="17.5"
         d="m 120,514.86218 c 0,9.66499 -7.83502,17.5 -17.5,17.5 -9.664983,0 -17.5,-7.83501 -17.5,-17.5 0,-9.66498 7.835017,-17.5 17.5,-17.5 9.66498,0 17.5,7.83502 17.5,17.5 z" />
      <path
         d="m 120,514.86218 c 0,9.66499 -7.83502,17.5 -17.5,17.5 -9.664983,0 -17.5,-7.83501 -17.5,-17.5 0,-9.66498 7.835017,-17.5 17.5,-17.5 9.66498,0 17.5,7.83502 17.5,17.5 z"
         sodipodi:ry="17.5"
         sodipodi:rx="17.5"
         sodipodi:cy="514.86218"
         sodipodi:cx="102.5"
         id="path4080"
         style="fill:#84ccff;fill-opacity:1;stroke:none"
         sodipodi:type="arc"
         transform="translate(99.999999,205)" />
      <path
         sodipodi:nodetypes="czcc"
         inkscape:connector-curvature="0"
         id="path4082"
         d="m 180.12491,708.14746 c 1.60715,7.5 18.70536,11.02679 19.64286,7.14286 0.9375,-3.88393 -7.27679,-6.02679 -8.03572,-12.67857 z"
         style="fill:#000cf7;fill-opacity:1;stroke:none" />
      <path
         sodipodi:nodetypes="cssszc"
         inkscape:connector-curvature="0"
         id="path4084"
         d="m 209.05936,700.78768 c 0.90621,0.62319 3.96254,5.09275 3.96254,5.09275 -1.88058,1.85038 -3.07389,2.97556 -2.61574,4.8736 0.41061,1.7011 3.86761,1.97533 7.78696,1.15268 1.58014,-0.33166 0.81765,-3.69422 -0.61586,-5.50132 -1.43352,-1.80709 -4.93142,-4.69007 -8.5179,-5.61771 z"
         style="fill:#000cf7;fill-opacity:1;stroke:none" />
      <path
         transform="matrix(0.71428571,0,0,0.71428571,129.28571,327.10348)"
         sodipodi:type="arc"
         style="fill:#84ccff;fill-opacity:1;stroke:none"
         id="path4086"
         sodipodi:cx="102.5"
         sodipodi:cy="514.86218"
         sodipodi:rx="17.5"
         sodipodi:ry="17.5"
         d="m 120,514.86218 c 0,9.66499 -7.83502,17.5 -17.5,17.5 -9.664983,0 -17.5,-7.83501 -17.5,-17.5 0,-9.66498 7.835017,-17.5 17.5,-17.5 9.66498,0 17.5,7.83502 17.5,17.5 z" />
    </g>
    <path
       d="m 360.71054,780.14916 c 0.0532,-3.23947 0.26553,-5.78856 3.82362,-5.78856 2.76153,0 6.53205,2.38978 6.53205,2.38978 l 2.70841,-2.70841 c 0,0 -5.04509,-3.39878 -9.24046,-3.39878 -6.10717,0 -8.23142,4.03605 -8.23142,9.50597 l 0,5.09817 -3.77052,0 0,3.71743 3.77052,0 0,25.49087 4.4078,-3.34821 0,-22.14266 8.60317,0 0,-3.71743 -8.60317,0 0,-5.09817"
       style="font-size:30.45408821px;font-style:normal;font-variant:normal;font-weight:bold;font-stretch:normal;line-height:125%;letter-spacing:0px;word-spacing:0px;fill:#000000;fill-opacity:1;stroke:none;font-family:Junction;-inkscape-font-specification:Junction Bold"
       id="path4088"
       inkscape:connector-curvature="0"
       sodipodi:nodetypes="csccssccccccccccc"
       inkscape:export-filename="/home/jared/clone/familyfound/static/imgs/logo_text.png"
       inkscape:export-xdpi="65.820038"
       inkscape:export-ydpi="65.820038" />
    <path
       d="m 371.24138,792.71691 c 0,0.0304 4.08085,-2.34497 6.66945,-2.34497 1.73588,0 1.88815,1.79679 1.88815,2.43633 l 0,1.91861 c -0.7309,0.18272 -2.00997,0.3959 -4.23312,0.70044 -5.14673,0.76135 -6.02991,3.3195 -6.02991,5.48174 0,4.23311 4.0504,4.56811 4.72039,4.56811 2.2536,0 4.26357,-1.06589 5.72537,-2.61905 0.27408,1.06589 0.88317,2.04042 2.34496,2.61905 l 1.64452,-1.5227 c -1.67497,-0.79181 -1.64452,-2.00997 -1.64452,-2.13179 l 0,-9.01441 c 0,-1.58361 -0.54818,-4.81175 -4.05039,-4.81175 -3.3804,0 -6.94354,2.04043 -8.03988,2.64951 -0.0305,0.0609 1.00498,2.04042 1.00498,2.07088 m 2.9236,10.62847 c -0.45682,-0.0304 -2.13179,-0.33499 -2.13179,-2.43632 0,-1.40089 0.48727,-2.83223 3.80676,-3.34995 1.97951,-0.30454 3.04541,-0.45681 3.95903,-0.63954 l 0,3.59358 c -1.21816,1.52271 -3.50222,2.9845 -5.634,2.83223"
       style="font-size:30.45408821px;font-style:normal;font-variant:normal;font-weight:bold;font-stretch:normal;line-height:125%;letter-spacing:0px;word-spacing:0px;fill:#000000;fill-opacity:1;stroke:none;font-family:Junction;-inkscape-font-specification:Junction Bold"
       id="path4090"
       inkscape:connector-curvature="0"
       inkscape:export-filename="/home/jared/clone/familyfound/static/imgs/logo_text.png"
       inkscape:export-xdpi="65.820038"
       inkscape:export-ydpi="65.820038" />
    <path
       d="m 390.13814,805.11172 0,-10.62848 c 1.21817,-1.46179 3.44132,-3.92857 6.33445,-3.92857 0.94408,0 1.30953,1.00498 1.30953,2.6495 l 0,11.90755 2.55814,0 0,-10.62848 c 1.21817,-1.46179 3.22814,-3.92857 6.33445,-3.92857 0.94408,0 1.30953,1.00498 1.30953,2.6495 l 0,11.90755 2.55814,0 0,-11.90755 c 0,-3.22813 -1.09635,-5.20765 -3.86767,-5.20765 -2.67995,0 -4.8422,1.70543 -6.42581,3.47177 -0.30454,-2.37542 -1.4618,-3.47177 -3.77631,-3.47177 -2.6495,0 -4.75083,1.64453 -6.33445,3.38041 l 0,-3.01496 -2.55814,0 0,16.74975 2.55814,0"
       style="font-size:30.45408821px;font-style:normal;font-variant:normal;font-weight:bold;font-stretch:normal;line-height:125%;letter-spacing:0px;word-spacing:0px;fill:#000000;fill-opacity:1;stroke:none;font-family:Junction;-inkscape-font-specification:Junction Bold"
       id="path4092"
       inkscape:connector-curvature="0"
       inkscape:export-filename="/home/jared/clone/familyfound/static/imgs/logo_text.png"
       inkscape:export-xdpi="65.820038"
       inkscape:export-ydpi="65.820038" />
    <path
       d="m 415.48356,788.36197 0,16.74975 2.52769,0 0,-16.74975 -2.52769,0 m -0.30454,-5.14674 c 0,0.91362 0.66999,1.58361 1.58361,1.58361 0.88317,0 1.55316,-0.66999 1.55316,-1.58361 0,-0.88317 -0.66999,-1.55316 -1.55316,-1.55316 -0.91362,0 -1.58361,0.66999 -1.58361,1.55316"
       style="font-size:30.45408821px;font-style:normal;font-variant:normal;font-weight:bold;font-stretch:normal;line-height:125%;letter-spacing:0px;word-spacing:0px;fill:#000000;fill-opacity:1;stroke:none;font-family:Junction;-inkscape-font-specification:Junction Bold"
       id="path4094"
       inkscape:connector-curvature="0"
       inkscape:export-filename="/home/jared/clone/familyfound/static/imgs/logo_text.png"
       inkscape:export-xdpi="65.820038"
       inkscape:export-ydpi="65.820038" />
    <path
       d="m 423.44683,780.13937 0,20.52605 c 0,1.1268 0,2.71042 1.06589,3.77631 0.94408,0.94408 2.77132,1.03544 3.7154,1.03544 l 0.0914,-2.16224 c -0.85271,0 -1.49225,-0.18273 -1.94906,-0.63954 -0.3959,-0.3959 -0.3959,-1.30952 -0.3959,-2.00997 l 0,-20.52605 -2.52769,0"
       style="font-size:30.45408821px;font-style:normal;font-variant:normal;font-weight:bold;font-stretch:normal;line-height:125%;letter-spacing:0px;word-spacing:0px;fill:#000000;fill-opacity:1;stroke:none;font-family:Junction;-inkscape-font-specification:Junction Bold"
       id="path4096"
       inkscape:connector-curvature="0"
       inkscape:export-filename="/home/jared/clone/familyfound/static/imgs/logo_text.png"
       inkscape:export-xdpi="65.820038"
       inkscape:export-ydpi="65.820038" />
    <path
       d="m 429.8222,788.36197 5.84718,15.22705 -0.82226,2.04042 c -1.15725,2.80177 -1.70543,3.62404 -2.43632,4.32448 -0.63954,0.63954 -1.37044,1.18771 -3.22814,1.30953 l 0.63954,2.22315 c 1.06589,-0.0609 2.67996,-0.27409 4.32448,-1.8577 1.55316,-1.49225 2.34497,-3.44132 3.10632,-5.32947 6.63898,-16.29292 7.0958,-17.1152 7.94851,-17.93746 l -2.89313,0 c -0.57863,0.48727 -3.13678,6.60854 -5.23811,11.75528 l -4.53766,-11.75528 -2.71041,0"
       style="font-size:30.45408821px;font-style:normal;font-variant:normal;font-weight:bold;font-stretch:normal;line-height:125%;letter-spacing:0px;word-spacing:0px;fill:#000000;fill-opacity:1;stroke:none;font-family:Junction;-inkscape-font-specification:Junction Bold"
       id="path4098"
       inkscape:connector-curvature="0"
       inkscape:export-filename="/home/jared/clone/familyfound/static/imgs/logo_text.png"
       inkscape:export-xdpi="65.820038"
       inkscape:export-ydpi="65.820038" />
    <path
       d="m 452.6428,785.43838 c 0.0305,-1.8577 0.15228,-3.3195 2.1927,-3.3195 1.58361,0 3.74585,1.37044 3.74585,1.37044 l 1.55316,-1.55316 c 0,0 -2.89314,-1.94906 -5.29901,-1.94906 -3.50222,0 -4.72039,2.31451 -4.72039,5.45128 l 0,2.92359 -2.16224,0 0,2.13179 2.16224,0 0,14.61796 2.52769,0 0,-14.61796 4.93357,0 0,-2.13179 -4.93357,0 0,-2.92359"
       style="font-size:30.45408820999999833px;font-style:normal;font-variant:normal;font-weight:bold;font-stretch:normal;line-height:125%;letter-spacing:0px;word-spacing:0px;fill:#000ad2;fill-opacity:1;stroke:none;font-family:Junction;-inkscape-font-specification:Junction Bold"
       id="path4100"
       inkscape:connector-curvature="0"
       inkscape:export-filename="/home/jared/clone/familyfound/static/imgs/logo_text.png"
       inkscape:export-xdpi="65.820038"
       inkscape:export-ydpi="65.820038" />
    <path
       d="m 460.27399,796.73685 c 0,6.60853 3.62404,8.74032 7.27852,8.74032 3.65449,0 7.27853,-2.28406 7.27853,-8.74032 0,-6.3649 -3.62404,-8.74033 -7.27853,-8.74033 -3.65448,0 -7.27852,2.34497 -7.27852,8.74033 m 11.99891,0 c 0,4.9031 -2.40588,6.66944 -4.72039,6.66944 -2.3145,0 -4.72038,-1.8577 -4.72038,-6.66944 0,-4.87265 2.40588,-6.63899 4.72038,-6.63899 2.31451,0 4.72039,1.91861 4.72039,6.63899"
       style="font-size:30.45408820999999833px;font-style:normal;font-variant:normal;font-weight:bold;font-stretch:normal;line-height:125%;letter-spacing:0px;word-spacing:0px;fill:#000ad2;fill-opacity:1;stroke:none;font-family:Junction;-inkscape-font-specification:Junction Bold"
       id="path4102"
       inkscape:connector-curvature="0"
       inkscape:export-filename="/home/jared/clone/familyfound/static/imgs/logo_text.png"
       inkscape:export-xdpi="65.820038"
       inkscape:export-ydpi="65.820038" />
    <path
       d="m 482.44266,803.01039 c -0.94408,0 -1.30953,-1.09635 -1.30953,-2.74087 l 0,-11.90755 -2.55814,0 0,11.90755 c 0,3.22813 1.09635,5.20765 3.86767,5.20765 2.71041,0 5.42083,-1.52271 7.30898,-3.3195 l 0,2.95405 2.55814,0 0,-16.74975 -2.55814,0 0,10.59803 c -1.61406,1.67497 -4.29403,4.05039 -7.30898,4.05039"
       style="font-size:30.45408820999999833px;font-style:normal;font-variant:normal;font-weight:bold;font-stretch:normal;line-height:125%;letter-spacing:0px;word-spacing:0px;fill:#000ad2;fill-opacity:1;stroke:none;font-family:Junction;-inkscape-font-specification:Junction Bold"
       id="path4104"
       inkscape:connector-curvature="0"
       inkscape:export-filename="/home/jared/clone/familyfound/static/imgs/logo_text.png"
       inkscape:export-xdpi="65.820038"
       inkscape:export-ydpi="65.820038" />
    <path
       d="m 499.96946,805.11172 0,-10.56757 c 1.61407,-1.64452 4.26358,-3.98948 7.30898,-3.98948 0.94408,0 1.30953,1.00498 1.30953,2.6495 l 0,11.90755 2.55814,0 0,-11.90755 c 0,-3.22813 -1.09635,-5.20765 -3.86767,-5.20765 -2.74086,0 -5.45128,1.7968 -7.30898,3.59359 l 0,-3.22814 -2.55814,0 0,16.74975 2.55814,0"
       style="font-size:30.45408820999999833px;font-style:normal;font-variant:normal;font-weight:bold;font-stretch:normal;line-height:125%;letter-spacing:0px;word-spacing:0px;fill:#000ad2;fill-opacity:1;stroke:none;font-family:Junction;-inkscape-font-specification:Junction Bold"
       id="path4106"
       inkscape:connector-curvature="0"
       inkscape:export-filename="/home/jared/clone/familyfound/static/imgs/logo_text.png"
       inkscape:export-xdpi="65.820038"
       inkscape:export-ydpi="65.820038" />
    <path
       d="m 520.96803,805.35535 c 2.61905,0.0305 4.75084,-1.24862 6.36491,-3.07586 0.12181,0.94408 0.45681,2.49724 2.55814,3.25859 l 1.61407,-1.64452 c -1.94906,-0.63954 -1.76634,-2.80178 -1.76634,-2.80178 l 0,-20.95241 -2.55815,0 0,10.17166 c -1.73588,-1.49224 -3.56313,-2.31451 -5.20764,-2.31451 -4.35493,0 -7.09581,3.3195 -7.09581,9.01441 0,4.41584 2.37543,8.31397 6.09082,8.34442 m 0,-2.46678 c -2.13178,-0.15227 -3.47177,-2.80178 -3.47177,-5.87764 0,-4.11129 1.76634,-6.51717 4.47676,-6.51717 1.58361,0 3.53267,1.1268 5.20764,2.77132 l 0,5.5731 c -0.97453,1.55316 -2.9845,4.29402 -6.21263,4.05039"
       style="font-size:30.45408820999999833px;font-style:normal;font-variant:normal;font-weight:bold;font-stretch:normal;line-height:125%;letter-spacing:0px;word-spacing:0px;fill:#000ad2;fill-opacity:1;stroke:none;font-family:Junction;-inkscape-font-specification:Junction Bold"
       id="path4108"
       inkscape:connector-curvature="0"
       inkscape:export-filename="/home/jared/clone/familyfound/static/imgs/logo_text.png"
       inkscape:export-xdpi="65.820038"
       inkscape:export-ydpi="65.820038" />
    <g
       id="g4110"
       transform="matrix(0.57429295,0,0,0.57429295,222.37786,388.65158)"
       inkscape:export-filename="/home/jared/clone/familyfound/static/imgs/logo_text.png"
       inkscape:export-xdpi="65.820038"
       inkscape:export-ydpi="65.820038">
      <path
         transform="matrix(0.85714287,0,0,0.85714294,102.14286,241.0517)"
         sodipodi:type="arc"
         style="fill:#000cf7;fill-opacity:1;stroke:none"
         id="path4112"
         sodipodi:cx="102.5"
         sodipodi:cy="514.86218"
         sodipodi:rx="17.5"
         sodipodi:ry="17.5"
         d="m 120,514.86218 c 0,9.66499 -7.83502,17.5 -17.5,17.5 -9.664983,0 -17.5,-7.83501 -17.5,-17.5 0,-9.66498 7.835017,-17.5 17.5,-17.5 9.66498,0 17.5,7.83502 17.5,17.5 z" />
      <path
         d="m 120,514.86218 c 0,9.66499 -7.83502,17.5 -17.5,17.5 -9.664983,0 -17.5,-7.83501 -17.5,-17.5 0,-9.66498 7.835017,-17.5 17.5,-17.5 9.66498,0 17.5,7.83502 17.5,17.5 z"
         sodipodi:ry="17.5"
         sodipodi:rx="17.5"
         sodipodi:cy="514.86218"
         sodipodi:cx="102.5"
         id="path4114"
         style="fill:#000cf7;fill-opacity:1;stroke:none"
         sodipodi:type="arc"
         transform="matrix(1.2857143,0,0,1.2857143,60.714286,52.896527)" />
      <path
         transform="translate(99.999999,205)"
         sodipodi:type="arc"
         style="fill:#84ccff;fill-opacity:1;stroke:none"
         id="path4116"
         sodipodi:cx="102.5"
         sodipodi:cy="514.86218"
         sodipodi:rx="17.5"
         sodipodi:ry="17.5"
         d="m 120,514.86218 c 0,9.66499 -7.83502,17.5 -17.5,17.5 -9.664983,0 -17.5,-7.83501 -17.5,-17.5 0,-9.66498 7.835017,-17.5 17.5,-17.5 9.66498,0 17.5,7.83502 17.5,17.5 z" />
      <path
         style="fill:#000cf7;fill-opacity:1;stroke:none"
         d="m 180.12491,708.14746 c 1.60715,7.5 18.70536,11.02679 19.64286,7.14286 0.9375,-3.88393 -7.27679,-6.02679 -8.03572,-12.67857 z"
         id="path4118"
         inkscape:connector-curvature="0"
         sodipodi:nodetypes="czcc" />
      <path
         style="fill:#000cf7;fill-opacity:1;stroke:none"
         d="m 209.05936,700.78768 c 0.90621,0.62319 3.96254,5.09275 3.96254,5.09275 -1.88058,1.85038 -3.07389,2.97556 -2.61574,4.8736 0.41061,1.7011 3.86761,1.97533 7.78696,1.15268 1.58014,-0.33166 0.81765,-3.69422 -0.61586,-5.50132 -1.43352,-1.80709 -4.93142,-4.69007 -8.5179,-5.61771 z"
         id="path4120"
         inkscape:connector-curvature="0"
         sodipodi:nodetypes="cssszc" />
      <path
         d="m 120,514.86218 c 0,9.66499 -7.83502,17.5 -17.5,17.5 -9.664983,0 -17.5,-7.83501 -17.5,-17.5 0,-9.66498 7.835017,-17.5 17.5,-17.5 9.66498,0 17.5,7.83502 17.5,17.5 z"
         sodipodi:ry="17.5"
         sodipodi:rx="17.5"
         sodipodi:cy="514.86218"
         sodipodi:cx="102.5"
         id="path4122"
         style="fill:#84ccff;fill-opacity:1;stroke:none"
         sodipodi:type="arc"
         transform="matrix(0.71428571,0,0,0.71428571,129.28571,327.10348)" />
    </g>
  </g>
</svg>
